<svg id="圖層_1" data-name="圖層 1" xmlns="http://www.w3.org/2000/svg" viewBox="0 0 45 35"><defs><style>.cls-1{fill:#fff;}</style></defs><path class="cls-1" d="M21.09,14.06l-2,2.37c-1.83,2.18-2.43,4.69-1.34,5.61s3.46-.11,5.29-2.29l2-2.38c1.84-2.19,2.45-4.7,1.35-5.62S22.93,11.87,21.09,14.06Z"/><path class="cls-1" d="M6.67,9l.27,3.07c.23,2.84,1.57,5,3,4.92s2.38-2.55,2.13-5.37l-.28-3.1c-.22-2.83-1.59-5-3-4.91S6.44,6.11,6.67,9Z"/><path class="cls-1" d="M29,25.82c-2.84.23-5,1.57-4.92,3s2.56,2.37,5.37,2.12l3.09-.27c2.86-.25,5-1.58,4.92-3s-2.55-2.37-5.36-2.13Z"/></svg>