<svg id="圖層_1" data-name="圖層 1" xmlns="http://www.w3.org/2000/svg" viewBox="0 0 45 35"><defs><style>.cls-1{fill:#333;}</style></defs><title>shock-333-40deg_L</title><path class="cls-1" d="M19.38,17.7l2,2.4c1.8,2.2,4.2,3.2,5.3,2.3s.5-3.4-1.3-5.6l-2-2.4c-1.8-2.2-4.2-3.2-5.3-2.3S17.58,15.5,19.38,17.7Z"/><path class="cls-1" d="M11.88,31l3.1.3c2.9.3,5.3-.7,5.4-2.1s-2.1-2.8-4.9-3l-3.1-.3c-2.9-.3-5.3.7-5.4,2.1S9.08,30.7,11.88,31Z"/><path class="cls-1" d="M32.38,11.9c-.3,2.9.7,5.3,2.1,5.4s2.8-2.1,3-4.9l.3-3.1c.2-2.9-.7-5.3-2.2-5.4s-2.8,2.1-3,4.9Z"/></svg>