<?xml version="1.0" encoding="utf-8"?>
<!-- Generator: Adobe Illustrator 22.1.0, SVG Export Plug-In . SVG Version: 6.00 Build 0)  -->
<svg version="1.1" id="圖層_1" xmlns="http://www.w3.org/2000/svg" xmlns:xlink="http://www.w3.org/1999/xlink" x="0px" y="0px"
	 viewBox="0 0 45 35" style="enable-background:new 0 0 45 35;" xml:space="preserve">
<style type="text/css">
	.st0{fill:#333333;}
	.st1{fill:#FFFFFF;}
	.st2{fill:#00ADBB;}
</style>
<g>
	<path class="st2" d="M26.7,12.1c-1.1-0.9-3.5,0.1-5.3,2.3l-2,2.4c-1.8,2.2-2.4,4.7-1.3,5.6c1.1,0.9,3.5-0.1,5.3-2.3l2-2.4
		C27.2,15.5,27.8,13,26.7,12.1z"/>
	<path class="st2" d="M37.8,28c-0.1-1.4-2.5-2.4-5.4-2.1l-3.1,0.3c-2.8,0.2-5,1.6-4.9,3c0.1,1.4,2.5,2.4,5.4,2.1l3.1-0.3
		C35.7,30.7,37.9,29.4,37.8,28z"/>
	<path class="st2" d="M12.2,8.8c-0.2-2.8-1.6-5-3-4.9C7.7,4,6.8,6.4,7,9.3l0.3,3.1c0.2,2.8,1.6,5,3,4.9s2.4-2.5,2.1-5.4L12.2,8.8z"
		/>
</g>
</svg>
