<svg id="圖層_1" data-name="圖層 1" xmlns="http://www.w3.org/2000/svg" viewBox="0 0 45 35"><defs><style>.cls-1{fill:#fff;}</style></defs><title>shock-fff-40deg</title><path class="cls-1" d="M17.68,11.75c-1.1.92-.49,3.43,1.35,5.62l2,2.38c1.83,2.18,4.2,3.21,5.29,2.29s.49-3.43-1.34-5.61l-2-2.37C21.14,11.87,18.77,10.84,17.68,11.75Z"/><path class="cls-1" d="M35.28,3.61c-1.41-.13-2.78,2.08-3,4.91L32,11.62c-.25,2.82.7,5.25,2.13,5.37s2.77-2.08,3-4.92L37.4,9C37.63,6.11,36.7,3.73,35.28,3.61Z"/><path class="cls-1" d="M12,25.54c-2.81-.24-5.24.71-5.36,2.13s2.06,2.75,4.92,3l3.09.27c2.81.25,5.25-.69,5.37-2.12s-2.08-2.77-4.92-3Z"/></svg>